<mxfile host="app.diagrams.net" agent="Mozilla/5.0 (Windows NT 10.0; Win64; x64) AppleWebKit/537.36 (KHTML, like Gecko) Chrome/126.0.0.0 Safari/537.36" version="24.7.4">
  <diagram name="Page-1" id="7TPIaw1NBii1Dmc8k2VB">
    <mxGraphModel dx="1621" dy="454" grid="1" gridSize="10" guides="1" tooltips="1" connect="1" arrows="1" fold="1" page="1" pageScale="1" pageWidth="827" pageHeight="1169" math="0" shadow="0">
      <root>
        <mxCell id="0" />
        <mxCell id="1" parent="0" />
        <mxCell id="xcdB2g4EsYAvKnlxKIcY-1" value="" style="edgeStyle=none;curved=1;rounded=0;orthogonalLoop=1;jettySize=auto;html=1;fontSize=12;startSize=8;endSize=8;" edge="1" parent="1" source="xcdB2g4EsYAvKnlxKIcY-3" target="xcdB2g4EsYAvKnlxKIcY-17">
          <mxGeometry relative="1" as="geometry" />
        </mxCell>
        <mxCell id="xcdB2g4EsYAvKnlxKIcY-2" value="" style="edgeStyle=none;curved=1;rounded=0;orthogonalLoop=1;jettySize=auto;html=1;fontSize=12;startSize=8;endSize=8;" edge="1" parent="1" source="xcdB2g4EsYAvKnlxKIcY-3" target="xcdB2g4EsYAvKnlxKIcY-16">
          <mxGeometry relative="1" as="geometry" />
        </mxCell>
        <mxCell id="xcdB2g4EsYAvKnlxKIcY-3" value="STAFF DETAILS" style="rounded=0;whiteSpace=wrap;html=1;" vertex="1" parent="1">
          <mxGeometry x="100" y="130" width="120" height="60" as="geometry" />
        </mxCell>
        <mxCell id="xcdB2g4EsYAvKnlxKIcY-4" value="ASSIGNMENT DETAILS" style="rounded=0;whiteSpace=wrap;html=1;" vertex="1" parent="1">
          <mxGeometry x="740" y="460" width="120" height="60" as="geometry" />
        </mxCell>
        <mxCell id="xcdB2g4EsYAvKnlxKIcY-5" value="" style="edgeStyle=none;curved=1;rounded=0;orthogonalLoop=1;jettySize=auto;html=1;fontSize=12;startSize=8;endSize=8;" edge="1" parent="1" source="xcdB2g4EsYAvKnlxKIcY-7" target="xcdB2g4EsYAvKnlxKIcY-33">
          <mxGeometry relative="1" as="geometry" />
        </mxCell>
        <mxCell id="xcdB2g4EsYAvKnlxKIcY-6" value="" style="edgeStyle=none;curved=1;rounded=0;orthogonalLoop=1;jettySize=auto;html=1;fontSize=12;startSize=8;endSize=8;" edge="1" parent="1" source="xcdB2g4EsYAvKnlxKIcY-7" target="xcdB2g4EsYAvKnlxKIcY-33">
          <mxGeometry relative="1" as="geometry" />
        </mxCell>
        <mxCell id="xcdB2g4EsYAvKnlxKIcY-7" value="SHIFT DETAILS" style="rounded=0;whiteSpace=wrap;html=1;" vertex="1" parent="1">
          <mxGeometry x="370" y="280" width="120" height="60" as="geometry" />
        </mxCell>
        <mxCell id="xcdB2g4EsYAvKnlxKIcY-8" value="One to Many" style="rhombus;whiteSpace=wrap;html=1;" vertex="1" parent="1">
          <mxGeometry x="120" y="270" width="80" height="80" as="geometry" />
        </mxCell>
        <mxCell id="xcdB2g4EsYAvKnlxKIcY-9" value="" style="endArrow=classic;html=1;rounded=0;fontSize=12;startSize=8;endSize=8;curved=1;exitX=0.528;exitY=1.172;exitDx=0;exitDy=0;exitPerimeter=0;entryX=0.5;entryY=0;entryDx=0;entryDy=0;" edge="1" parent="1" target="xcdB2g4EsYAvKnlxKIcY-8">
          <mxGeometry width="50" height="50" relative="1" as="geometry">
            <mxPoint x="161.0899999999999" y="189.99999999999994" as="sourcePoint" />
            <mxPoint x="163" y="270" as="targetPoint" />
            <Array as="points" />
          </mxGeometry>
        </mxCell>
        <mxCell id="xcdB2g4EsYAvKnlxKIcY-10" value="" style="endArrow=classic;html=1;rounded=0;fontSize=12;startSize=8;endSize=8;curved=1;exitX=0.528;exitY=1.172;exitDx=0;exitDy=0;exitPerimeter=0;entryX=0;entryY=0.5;entryDx=0;entryDy=0;" edge="1" parent="1" target="xcdB2g4EsYAvKnlxKIcY-7">
          <mxGeometry width="50" height="50" relative="1" as="geometry">
            <mxPoint x="201.0899999999999" y="309.99999999999994" as="sourcePoint" />
            <mxPoint x="200" y="390" as="targetPoint" />
            <Array as="points" />
          </mxGeometry>
        </mxCell>
        <mxCell id="xcdB2g4EsYAvKnlxKIcY-11" value="One to One" style="rhombus;whiteSpace=wrap;html=1;" vertex="1" parent="1">
          <mxGeometry x="760" y="270" width="80" height="80" as="geometry" />
        </mxCell>
        <mxCell id="xcdB2g4EsYAvKnlxKIcY-12" value="" style="endArrow=classic;html=1;rounded=0;fontSize=12;startSize=8;endSize=8;curved=1;entryX=0;entryY=0.5;entryDx=0;entryDy=0;exitX=1;exitY=0.5;exitDx=0;exitDy=0;" edge="1" parent="1" source="xcdB2g4EsYAvKnlxKIcY-7" target="xcdB2g4EsYAvKnlxKIcY-11">
          <mxGeometry width="50" height="50" relative="1" as="geometry">
            <mxPoint x="400" y="310" as="sourcePoint" />
            <mxPoint x="450" y="260" as="targetPoint" />
          </mxGeometry>
        </mxCell>
        <mxCell id="xcdB2g4EsYAvKnlxKIcY-13" value="" style="endArrow=classic;html=1;rounded=0;fontSize=12;startSize=8;endSize=8;curved=1;entryX=0.5;entryY=0;entryDx=0;entryDy=0;exitX=0.5;exitY=1;exitDx=0;exitDy=0;" edge="1" parent="1" source="xcdB2g4EsYAvKnlxKIcY-11" target="xcdB2g4EsYAvKnlxKIcY-4">
          <mxGeometry width="50" height="50" relative="1" as="geometry">
            <mxPoint x="490" y="320" as="sourcePoint" />
            <mxPoint x="550" y="320" as="targetPoint" />
          </mxGeometry>
        </mxCell>
        <mxCell id="xcdB2g4EsYAvKnlxKIcY-14" value="" style="edgeStyle=none;curved=1;rounded=0;orthogonalLoop=1;jettySize=auto;html=1;fontSize=12;startSize=8;endSize=8;" edge="1" parent="1" source="xcdB2g4EsYAvKnlxKIcY-15" target="xcdB2g4EsYAvKnlxKIcY-20">
          <mxGeometry relative="1" as="geometry" />
        </mxCell>
        <mxCell id="xcdB2g4EsYAvKnlxKIcY-15" value="ADMIN DETAILS" style="rounded=1;whiteSpace=wrap;html=1;" vertex="1" parent="1">
          <mxGeometry x="610" y="140" width="120" height="60" as="geometry" />
        </mxCell>
        <mxCell id="xcdB2g4EsYAvKnlxKIcY-16" value="STAFF ID(PK)" style="ellipse;whiteSpace=wrap;html=1;" vertex="1" parent="1">
          <mxGeometry x="-70" y="110" width="120" height="60" as="geometry" />
        </mxCell>
        <mxCell id="xcdB2g4EsYAvKnlxKIcY-17" value="STAFF NAME" style="ellipse;whiteSpace=wrap;html=1;" vertex="1" parent="1">
          <mxGeometry x="110" y="40" width="120" height="60" as="geometry" />
        </mxCell>
        <mxCell id="xcdB2g4EsYAvKnlxKIcY-18" value="DEPARTMENT" style="ellipse;whiteSpace=wrap;html=1;" vertex="1" parent="1">
          <mxGeometry x="290" y="50" width="120" height="60" as="geometry" />
        </mxCell>
        <mxCell id="xcdB2g4EsYAvKnlxKIcY-19" value="ADMIN NAME" style="ellipse;whiteSpace=wrap;html=1;" vertex="1" parent="1">
          <mxGeometry x="790" y="150" width="120" height="60" as="geometry" />
        </mxCell>
        <mxCell id="xcdB2g4EsYAvKnlxKIcY-20" value="DEPARTMENT" style="ellipse;whiteSpace=wrap;html=1;" vertex="1" parent="1">
          <mxGeometry x="530" y="50" width="120" height="60" as="geometry" />
        </mxCell>
        <mxCell id="xcdB2g4EsYAvKnlxKIcY-21" value="ADMIN ID" style="ellipse;whiteSpace=wrap;html=1;" vertex="1" parent="1">
          <mxGeometry x="730" y="50" width="120" height="60" as="geometry" />
        </mxCell>
        <mxCell id="xcdB2g4EsYAvKnlxKIcY-22" value="" style="endArrow=classic;html=1;rounded=0;fontSize=12;startSize=8;endSize=8;curved=1;" edge="1" parent="1">
          <mxGeometry width="50" height="50" relative="1" as="geometry">
            <mxPoint x="720" y="140" as="sourcePoint" />
            <mxPoint x="760" y="110" as="targetPoint" />
          </mxGeometry>
        </mxCell>
        <mxCell id="xcdB2g4EsYAvKnlxKIcY-23" value="" style="endArrow=classic;html=1;rounded=0;fontSize=12;startSize=8;endSize=8;curved=1;entryX=0.022;entryY=0.361;entryDx=0;entryDy=0;entryPerimeter=0;" edge="1" parent="1" target="xcdB2g4EsYAvKnlxKIcY-19">
          <mxGeometry width="50" height="50" relative="1" as="geometry">
            <mxPoint x="730" y="150" as="sourcePoint" />
            <mxPoint x="770" y="120" as="targetPoint" />
          </mxGeometry>
        </mxCell>
        <mxCell id="xcdB2g4EsYAvKnlxKIcY-24" value="" style="endArrow=classic;html=1;rounded=0;fontSize=12;startSize=8;endSize=8;curved=1;entryX=0.211;entryY=0.883;entryDx=0;entryDy=0;entryPerimeter=0;" edge="1" parent="1" target="xcdB2g4EsYAvKnlxKIcY-18">
          <mxGeometry width="50" height="50" relative="1" as="geometry">
            <mxPoint x="220" y="140" as="sourcePoint" />
            <mxPoint x="290" y="110" as="targetPoint" />
          </mxGeometry>
        </mxCell>
        <mxCell id="xcdB2g4EsYAvKnlxKIcY-25" value="STAFF ID" style="ellipse;whiteSpace=wrap;html=1;" vertex="1" parent="1">
          <mxGeometry x="510" y="570" width="120" height="80" as="geometry" />
        </mxCell>
        <mxCell id="xcdB2g4EsYAvKnlxKIcY-26" value="" style="edgeStyle=none;curved=1;rounded=0;orthogonalLoop=1;jettySize=auto;html=1;fontSize=12;startSize=8;endSize=8;exitX=0.7;exitY=0.083;exitDx=0;exitDy=0;exitPerimeter=0;entryX=0.667;entryY=1.017;entryDx=0;entryDy=0;entryPerimeter=0;" edge="1" parent="1" source="xcdB2g4EsYAvKnlxKIcY-7" target="xcdB2g4EsYAvKnlxKIcY-27">
          <mxGeometry relative="1" as="geometry" />
        </mxCell>
        <mxCell id="xcdB2g4EsYAvKnlxKIcY-27" value="SHIFT ID" style="ellipse;whiteSpace=wrap;html=1;" vertex="1" parent="1">
          <mxGeometry x="280" y="210" width="90" height="60" as="geometry" />
        </mxCell>
        <mxCell id="xcdB2g4EsYAvKnlxKIcY-28" value="" style="edgeStyle=none;curved=1;rounded=0;orthogonalLoop=1;jettySize=auto;html=1;fontSize=12;startSize=8;endSize=8;exitX=0.422;exitY=0.983;exitDx=0;exitDy=0;exitPerimeter=0;entryX=0.406;entryY=-0.029;entryDx=0;entryDy=0;entryPerimeter=0;" edge="1" parent="1" source="xcdB2g4EsYAvKnlxKIcY-4" target="xcdB2g4EsYAvKnlxKIcY-29">
          <mxGeometry relative="1" as="geometry">
            <mxPoint x="593" y="560" as="sourcePoint" />
          </mxGeometry>
        </mxCell>
        <mxCell id="xcdB2g4EsYAvKnlxKIcY-29" value="SHIFT ID" style="ellipse;whiteSpace=wrap;html=1;" vertex="1" parent="1">
          <mxGeometry x="690" y="560" width="120" height="80" as="geometry" />
        </mxCell>
        <mxCell id="xcdB2g4EsYAvKnlxKIcY-30" value="ADMIN ID" style="ellipse;whiteSpace=wrap;html=1;" vertex="1" parent="1">
          <mxGeometry x="880" y="550" width="120" height="80" as="geometry" />
        </mxCell>
        <mxCell id="xcdB2g4EsYAvKnlxKIcY-31" value="" style="edgeStyle=none;curved=1;rounded=0;orthogonalLoop=1;jettySize=auto;html=1;fontSize=12;startSize=8;endSize=8;entryX=1;entryY=0;entryDx=0;entryDy=0;exitX=0.361;exitY=0.972;exitDx=0;exitDy=0;exitPerimeter=0;" edge="1" parent="1" source="xcdB2g4EsYAvKnlxKIcY-7" target="xcdB2g4EsYAvKnlxKIcY-32">
          <mxGeometry relative="1" as="geometry" />
        </mxCell>
        <mxCell id="xcdB2g4EsYAvKnlxKIcY-32" value="START TIME" style="ellipse;whiteSpace=wrap;html=1;" vertex="1" parent="1">
          <mxGeometry x="330" y="380" width="90" height="60" as="geometry" />
        </mxCell>
        <mxCell id="xcdB2g4EsYAvKnlxKIcY-33" value="END TIME" style="ellipse;whiteSpace=wrap;html=1;" vertex="1" parent="1">
          <mxGeometry x="450" y="380" width="90" height="60" as="geometry" />
        </mxCell>
        <mxCell id="xcdB2g4EsYAvKnlxKIcY-34" value="" style="endArrow=classic;html=1;rounded=0;fontSize=12;startSize=8;endSize=8;curved=1;exitX=0;exitY=1;exitDx=0;exitDy=0;" edge="1" parent="1" source="xcdB2g4EsYAvKnlxKIcY-15">
          <mxGeometry relative="1" as="geometry">
            <mxPoint x="250" y="280" as="sourcePoint" />
            <mxPoint x="790" y="460" as="targetPoint" />
          </mxGeometry>
        </mxCell>
        <mxCell id="xcdB2g4EsYAvKnlxKIcY-35" value="Assigns" style="edgeLabel;resizable=0;html=1;fontSize=12;;align=center;verticalAlign=middle;" connectable="0" vertex="1" parent="xcdB2g4EsYAvKnlxKIcY-34">
          <mxGeometry relative="1" as="geometry" />
        </mxCell>
        <mxCell id="xcdB2g4EsYAvKnlxKIcY-36" value="Source" style="edgeLabel;resizable=0;html=1;fontSize=12;;align=left;verticalAlign=bottom;" connectable="0" vertex="1" parent="xcdB2g4EsYAvKnlxKIcY-34">
          <mxGeometry x="-1" relative="1" as="geometry" />
        </mxCell>
        <mxCell id="xcdB2g4EsYAvKnlxKIcY-37" value="" style="edgeStyle=none;curved=1;rounded=0;orthogonalLoop=1;jettySize=auto;html=1;fontSize=12;startSize=8;endSize=8;entryX=0.211;entryY=0.154;entryDx=0;entryDy=0;entryPerimeter=0;exitX=0.75;exitY=1;exitDx=0;exitDy=0;" edge="1" parent="1" source="xcdB2g4EsYAvKnlxKIcY-4" target="xcdB2g4EsYAvKnlxKIcY-30">
          <mxGeometry relative="1" as="geometry">
            <mxPoint x="623" y="529" as="sourcePoint" />
            <mxPoint x="595" y="530" as="targetPoint" />
          </mxGeometry>
        </mxCell>
        <mxCell id="xcdB2g4EsYAvKnlxKIcY-38" value="" style="edgeStyle=none;curved=1;rounded=0;orthogonalLoop=1;jettySize=auto;html=1;fontSize=12;startSize=8;endSize=8;entryX=0.917;entryY=0.125;entryDx=0;entryDy=0;entryPerimeter=0;exitX=0;exitY=1;exitDx=0;exitDy=0;" edge="1" parent="1" source="xcdB2g4EsYAvKnlxKIcY-4" target="xcdB2g4EsYAvKnlxKIcY-25">
          <mxGeometry relative="1" as="geometry">
            <mxPoint x="613" y="580" as="sourcePoint" />
            <mxPoint x="605" y="540" as="targetPoint" />
          </mxGeometry>
        </mxCell>
        <mxCell id="xcdB2g4EsYAvKnlxKIcY-39" value="" style="edgeStyle=none;curved=1;rounded=0;orthogonalLoop=1;jettySize=auto;html=1;fontSize=12;startSize=8;endSize=8;entryX=0;entryY=0.25;entryDx=0;entryDy=0;" edge="1" parent="1" source="xcdB2g4EsYAvKnlxKIcY-40" target="xcdB2g4EsYAvKnlxKIcY-15">
          <mxGeometry relative="1" as="geometry" />
        </mxCell>
        <mxCell id="xcdB2g4EsYAvKnlxKIcY-40" value="One to One" style="rhombus;whiteSpace=wrap;html=1;" vertex="1" parent="1">
          <mxGeometry x="400" y="120" width="80" height="80" as="geometry" />
        </mxCell>
        <mxCell id="xcdB2g4EsYAvKnlxKIcY-41" value="" style="endArrow=classic;html=1;rounded=0;fontSize=12;startSize=8;endSize=8;curved=1;exitX=1;exitY=0.5;exitDx=0;exitDy=0;entryX=0;entryY=0.5;entryDx=0;entryDy=0;" edge="1" parent="1" source="xcdB2g4EsYAvKnlxKIcY-3" target="xcdB2g4EsYAvKnlxKIcY-40">
          <mxGeometry width="50" height="50" relative="1" as="geometry">
            <mxPoint x="220" y="300" as="sourcePoint" />
            <mxPoint x="270" y="250" as="targetPoint" />
          </mxGeometry>
        </mxCell>
      </root>
    </mxGraphModel>
  </diagram>
</mxfile>
